<?xml version="1.0" encoding="UTF-8" standalone="no"?>
<!DOCTYPE svg PUBLIC "-//W3C//DTD SVG 1.1//EN" "http://www.w3.org/Graphics/SVG/1.1/DTD/svg11.dtd">
<svg xmlns="http://www.w3.org/2000/svg" version="1.1" viewBox="0 0 237 67">
<g stroke-width="2.00" fill="none" stroke-linecap="butt">
<path stroke="#d51c2f" vector-effect="non-scaling-stroke" d="
  M 54.50 24.46
  C 52.64 24.98 51.40 23.87 51.09 22.02
  C 49.72 13.68 47.55 6.75 40.04 2.00"
/>
<path stroke="#d51c2f" vector-effect="non-scaling-stroke" d="
  M 56.50 24.21
  Q 57.42 23.93 58.18 24.21
  Q 58.68 24.39 58.77 24.92
  L 60.29 34.75"
/>
<path stroke="#925c40" vector-effect="non-scaling-stroke" d="
  M 60.29 34.75
  L 58.00 35.79"
/>
<path stroke="#d51c2f" vector-effect="non-scaling-stroke" d="
  M 58.00 35.79
  Q 55.91 33.99 55.73 31.10
  Q 55.67 30.16 54.90 30.70
  Q 53.98 31.36 53.56 32.43
  A 0.79 0.79 0.0 0 1 52.31 32.74
  Q 44.91 26.47 44.18 16.75
  A 0.63 0.63 0.0 0 0 43.27 16.24
  C 36.79 19.59 34.22 25.86 33.82 33.03
  A 0.74 0.73 -64.5 0 1 32.54 33.49
  L 30.16 30.83
  Q 29.54 30.14 29.25 31.02
  Q 26.95 38.12 28.00 45.46"
/>
<path stroke="#c6062a" vector-effect="non-scaling-stroke" d="
  M 28.00 45.46
  L 24.00 44.96"
/>
<path stroke="#8f6f40" vector-effect="non-scaling-stroke" d="
  M 58.00 35.79
  Q 55.84 36.68 56.00 38.96"
/>
<path stroke="#c3192a" vector-effect="non-scaling-stroke" d="
  M 56.00 38.96
  L 52.66 40.96"
/>
<path stroke="#e7732d" vector-effect="non-scaling-stroke" d="
  M 52.66 40.96
  L 51.55 38.71
  Q 51.26 38.12 50.79 38.58
  L 49.92 39.45
  Q 49.45 39.92 48.97 39.47
  Q 44.46 35.22 43.70 29.03
  A 0.74 0.74 0.0 0 0 42.54 28.52
  Q 36.74 32.61 36.53 39.83
  A 0.55 0.55 0.0 0 1 35.59 40.21
  L 33.81 38.44
  Q 33.24 37.86 33.12 38.67
  L 32.00 46.21"
/>
<path stroke="#c3192a" vector-effect="non-scaling-stroke" d="
  M 32.00 46.21
  Q 29.91 46.31 28.00 45.46"
/>
<path stroke="#8f6f40" vector-effect="non-scaling-stroke" d="
  M 63.04 33.91
  Q 62.06 34.89 60.29 34.75"
/>
<path stroke="#d85d28" vector-effect="non-scaling-stroke" d="
  M 52.66 40.96
  Q 43.38 47.39 32.00 46.21"
/>
<path stroke="#45a148" vector-effect="non-scaling-stroke" d="
  M 76.71 41.00
  C 75.31 41.41 71.33 43.20 71.44 39.99
  Q 71.49 38.59 73.04 37.25"
/>
<path stroke="#45a148" vector-effect="non-scaling-stroke" d="
  M 78.21 49.50
  L 76.46 50.86
  Q 76.09 51.14 75.91 51.56
  C 74.88 53.88 71.50 55.34 70.44 51.85
  Q 69.88 50.00 69.15 48.07
  Q 68.94 47.53 68.40 47.72
  Q 63.01 49.67 58.21 47.00"
/>
<path stroke="#80593a" vector-effect="non-scaling-stroke" d="
  M 58.21 47.00
  L 60.98 43.88
  Q 61.38 43.43 60.92 43.05
  L 56.00 38.96"
/>
<path stroke="#794c32" vector-effect="non-scaling-stroke" d="
  M 58.21 47.00
  Q 56.06 48.75 57.52 50.92
  Q 57.84 51.39 58.40 51.51
  Q 63.18 52.54 68.01 51.74
  Q 68.57 51.65 68.68 52.21
  Q 69.25 55.33 70.75 57.96"
/>
</g>
<path fill="#d22f2f" d="
  M 54.50 24.46
  C 52.64 24.98 51.40 23.87 51.09 22.02
  C 49.72 13.68 47.55 6.75 40.04 2.00
  Q 39.77 1.24 40.06 0.66
  Q 40.32 0.14 40.84 0.40
  C 50.70 5.32 53.89 13.90 54.50 24.46
  Z"
/>
<path fill="#d8092f" d="
  M 40.04 2.00
  C 47.55 6.75 49.72 13.68 51.09 22.02
  C 51.40 23.87 52.64 24.98 54.50 24.46
  Q 55.49 24.74 56.50 24.21
  Q 57.42 23.93 58.18 24.21
  Q 58.68 24.39 58.77 24.92
  L 60.29 34.75
  L 58.00 35.79
  Q 55.91 33.99 55.73 31.10
  Q 55.67 30.16 54.90 30.70
  Q 53.98 31.36 53.56 32.43
  A 0.79 0.79 0.0 0 1 52.31 32.74
  Q 44.91 26.47 44.18 16.75
  A 0.63 0.63 0.0 0 0 43.27 16.24
  C 36.79 19.59 34.22 25.86 33.82 33.03
  A 0.74 0.73 -64.5 0 1 32.54 33.49
  L 30.16 30.83
  Q 29.54 30.14 29.25 31.02
  Q 26.95 38.12 28.00 45.46
  L 24.00 44.96
  Q 19.32 32.65 24.60 21.05
  A 0.46 0.46 0.0 0 1 25.38 20.95
  L 27.91 24.13
  Q 28.41 24.77 28.90 24.11
  C 34.54 16.53 39.35 12.78 40.04 2.00
  Z"
/>
<path fill="#d22f2f" d="
  M 58.00 35.79
  Q 55.84 36.68 56.00 38.96
  L 52.66 40.96
  L 51.55 38.71
  Q 51.26 38.12 50.79 38.58
  L 49.92 39.45
  Q 49.45 39.92 48.97 39.47
  Q 44.46 35.22 43.70 29.03
  A 0.74 0.74 0.0 0 0 42.54 28.52
  Q 36.74 32.61 36.53 39.83
  A 0.55 0.55 0.0 0 1 35.59 40.21
  L 33.81 38.44
  Q 33.24 37.86 33.12 38.67
  L 32.00 46.21
  Q 29.91 46.31 28.00 45.46
  Q 26.95 38.12 29.25 31.02
  Q 29.54 30.14 30.16 30.83
  L 32.54 33.49
  A 0.74 0.73 -64.5 0 0 33.82 33.03
  C 34.22 25.86 36.79 19.59 43.27 16.24
  A 0.63 0.63 0.0 0 1 44.18 16.75
  Q 44.91 26.47 52.31 32.74
  A 0.79 0.79 0.0 0 0 53.56 32.43
  Q 53.98 31.36 54.90 30.70
  Q 55.67 30.16 55.73 31.10
  Q 55.91 33.99 58.00 35.79
  Z"
/>
<rect fill="#d8092f" x="-3.75" y="-3.25" transform="translate(124.01,20.99) rotate(-0.6)" width="7.50" height="6.50" rx="0.95"/>
<path fill="#d8092f" d="
  M 187.95 26.04
  L 194.73 25.98
  A 0.31 0.31 0.0 0 1 195.00 26.46
  L 189.88 34.76
  A 0.31 0.31 0.0 0 0 189.87 35.07
  L 195.90 46.29
  A 0.31 0.31 0.0 0 1 195.62 46.75
  L 187.88 46.75
  A 0.31 0.31 0.0 0 1 187.60 46.57
  L 184.02 38.49
  A 0.31 0.31 0.0 0 0 183.42 38.62
  L 183.55 46.53
  A 0.31 0.31 0.0 0 1 183.24 46.84
  L 176.56 46.86
  A 0.31 0.31 0.0 0 1 176.25 46.55
  L 176.25 18.14
  A 0.31 0.31 0.0 0 1 176.56 17.83
  L 183.21 17.85
  A 0.31 0.31 0.0 0 1 183.52 18.16
  L 183.46 32.92
  A 0.31 0.31 0.0 0 0 184.05 33.07
  L 187.68 26.20
  A 0.31 0.31 0.0 0 1 187.95 26.04
  Z"
/>
<rect fill="#d8092f" x="-3.75" y="-3.25" transform="translate(232.50,20.99) rotate(-0.5)" width="7.50" height="6.50" rx="0.93"/>
<path fill="#d8092f" d="
  M 103.50 36.75
  L 103.50 45.75
  Q 103.50 46.33 102.93 46.44
  Q 99.39 47.13 95.85 46.30
  Q 95.25 46.16 95.25 45.54
  L 95.25 18.66
  Q 95.25 18.01 95.90 18.01
  L 102.76 18.00
  Q 103.53 17.99 103.52 18.76
  L 103.45 27.26
  A 0.37 0.37 0.0 0 0 104.16 27.42
  L 108.46 18.55
  Q 108.75 17.95 109.42 17.98
  L 116.63 18.29
  A 0.71 0.70 -74.4 0 1 117.22 19.34
  L 110.57 31.30
  A 1.17 1.17 0.0 0 0 110.65 32.57
  L 118.22 42.98
  Q 118.53 43.40 118.12 43.74
  C 115.76 45.68 111.00 48.79 108.74 44.97
  Q 106.34 40.91 104.31 36.57
  A 0.43 0.42 32.4 0 0 103.50 36.75
  Z"
/>
<path fill="#d22f2f" d="
  M 63.04 33.91
  Q 62.06 34.89 60.29 34.75
  L 58.77 24.92
  Q 58.68 24.39 58.18 24.21
  Q 57.42 23.93 56.50 24.21
  Q 58.57 22.69 59.48 20.25
  A 0.48 0.47 -46.8 0 1 60.36 20.22
  Q 63.16 26.65 63.04 33.91
  Z"
/>
<path fill="#d8092f" d="
  M 130.95 32.44
  C 129.05 28.30 133.08 22.98 137.03 27.65
  Q 137.40 28.09 137.88 27.78
  C 153.27 17.75 156.88 48.98 140.95 46.64
  Q 140.25 46.53 140.25 47.24
  L 140.25 53.62
  Q 140.25 54.25 139.62 54.25
  L 133.75 54.25
  Q 133.25 54.25 133.25 53.75
  L 133.25 33.62
  Q 133.25 33.00 132.62 33.00
  L 131.83 33.00
  Q 131.21 33.00 130.95 32.44
  Z
  M 143.8855 34.4880
  A 1.40 1.40 0.0 0 0 142.5002 33.0735
  L 141.8802 33.0670
  A 1.40 1.40 0.0 0 0 140.4656 34.4522
  L 140.4145 39.3320
  A 1.40 1.40 0.0 0 0 141.7998 40.7465
  L 142.4198 40.7530
  A 1.40 1.40 0.0 0 0 143.8344 39.3678
  L 143.8855 34.4880
  Z"
/>
<path fill="#d8092f" d="
  M 171.92 39.84
  L 172.95 40.21
  Q 173.52 40.42 173.64 41.00
  Q 174.20 43.73 172.85 46.09
  Q 172.59 46.53 172.12 46.70
  Q 169.26 47.74 167.39 45.22
  Q 167.09 44.82 166.70 45.14
  C 163.16 48.02 156.90 47.87 154.79 43.38
  C 153.10 39.79 153.97 30.76 154.03 26.57
  A 0.57 0.57 0.0 0 1 154.60 26.01
  L 159.96 26.00
  A 1.03 1.03 0.0 0 1 161.00 27.02
  L 161.00 39.53
  Q 161.00 40.24 161.72 40.22
  L 163.81 40.16
  Q 164.50 40.14 164.50 39.45
  L 164.50 26.80
  Q 164.50 26.10 165.20 26.10
  L 170.78 26.07
  A 0.71 0.71 0.0 0 1 171.50 26.78
  L 171.50 39.24
  Q 171.50 39.69 171.92 39.84
  Z"
/>
<path fill="#d8092f" d="
  M 205.94 38.30
  L 209.00 26.33
  A 0.32 0.32 0.0 0 1 209.30 26.08
  L 214.08 25.98
  A 0.32 0.32 0.0 0 1 214.40 26.22
  L 217.29 38.42
  A 0.32 0.32 0.0 0 0 217.92 38.38
  L 219.17 26.20
  A 0.32 0.32 0.0 0 1 219.50 25.91
  L 226.05 26.22
  A 0.32 0.32 0.0 0 1 226.35 26.60
  L 222.37 46.53
  A 0.32 0.32 0.0 0 1 222.06 46.78
  L 213.78 46.87
  A 0.32 0.32 0.0 0 1 213.46 46.61
  L 211.87 38.34
  A 0.32 0.32 0.0 0 0 211.25 38.33
  L 209.58 46.49
  A 0.32 0.32 0.0 0 1 209.27 46.75
  L 200.63 46.75
  A 0.32 0.32 0.0 0 1 200.31 46.49
  L 196.63 26.38
  A 0.32 0.32 0.0 0 1 196.94 26.00
  L 203.49 26.00
  A 0.32 0.32 0.0 0 1 203.81 26.28
  L 205.31 38.26
  A 0.32 0.32 0.0 0 0 205.94 38.30
  Z"
/>
<rect fill="#d8092f" x="120.25" y="26.24" width="7.50" height="20.50" rx="0.80"/>
<rect fill="#d8092f" x="228.75" y="26.23" width="7.50" height="20.50" rx="0.82"/>
<path fill="#fcb72b" d="
  M 52.66 40.96
  Q 43.38 47.39 32.00 46.21
  L 33.12 38.67
  Q 33.24 37.86 33.81 38.44
  L 35.59 40.21
  A 0.55 0.55 0.0 0 0 36.53 39.83
  Q 36.74 32.61 42.54 28.52
  A 0.74 0.74 0.0 0 1 43.70 29.03
  Q 44.46 35.22 48.97 39.47
  Q 49.45 39.92 49.92 39.45
  L 50.79 38.58
  Q 51.26 38.12 51.55 38.71
  L 52.66 40.96
  Z"
/>
<path fill="#3d943f" d="
  M 76.71 41.00
  C 75.31 41.41 71.33 43.20 71.44 39.99
  Q 71.49 38.59 73.04 37.25
  Q 76.78 35.60 78.21 31.70
  Q 78.37 31.25 78.83 31.12
  L 80.55 30.68
  Q 81.21 30.50 81.64 31.03
  C 84.01 33.96 78.72 38.96 76.71 41.00
  Z"
/>
<path fill="#4cae50" d="
  M 63.04 33.91
  Q 68.44 34.33 73.04 37.25
  Q 71.49 38.59 71.44 39.99
  C 71.33 43.20 75.31 41.41 76.71 41.00
  Q 79.04 44.97 78.21 49.50
  L 76.46 50.86
  Q 76.09 51.14 75.91 51.56
  C 74.88 53.88 71.50 55.34 70.44 51.85
  Q 69.88 50.00 69.15 48.07
  Q 68.94 47.53 68.40 47.72
  Q 63.01 49.67 58.21 47.00
  L 60.98 43.88
  Q 61.38 43.43 60.92 43.05
  L 56.00 38.96
  Q 55.84 36.68 58.00 35.79
  L 60.29 34.75
  Q 62.06 34.89 63.04 33.91
  Z"
/>
<path fill="#b40324" d="
  M 24.00 44.96
  L 28.00 45.46
  Q 29.91 46.31 32.00 46.21
  Q 43.38 47.39 52.66 40.96
  L 56.00 38.96
  L 60.92 43.05
  Q 61.38 43.43 60.98 43.88
  L 58.21 47.00
  Q 56.06 48.75 57.52 50.92
  Q 57.84 51.39 58.40 51.51
  Q 63.18 52.54 68.01 51.74
  Q 68.57 51.65 68.68 52.21
  Q 69.25 55.33 70.75 57.96
  Q 59.85 66.40 45.94 67.00
  L 42.44 67.00
  C 23.10 65.22 7.15 56.49 0.00 37.44
  L 0.00 36.69
  C 0.93 34.60 2.69 34.57 4.48 35.78
  Q 13.50 41.92 24.00 44.96
  Z"
/>
<path fill="#3d943f" d="
  M 58.21 47.00
  Q 63.01 49.67 68.40 47.72
  Q 68.94 47.53 69.15 48.07
  Q 69.88 50.00 70.44 51.85
  C 71.50 55.34 74.88 53.88 75.91 51.56
  Q 76.09 51.14 76.46 50.86
  L 78.21 49.50
  C 77.29 53.11 74.72 57.32 70.75 57.96
  Q 69.25 55.33 68.68 52.21
  Q 68.57 51.65 68.01 51.74
  Q 63.18 52.54 58.40 51.51
  Q 57.84 51.39 57.52 50.92
  Q 56.06 48.75 58.21 47.00
  Z"
/>
</svg>
